<svg width="59" height="72" viewBox="0 0 59 72" fill="none" xmlns="http://www.w3.org/2000/svg">
<path d="M57.8678 57.104L57.8519 57.2V57.472L57.8359 57.712V57.84L57.8041 58.08L57.7881 58.208L57.7403 58.448L57.7243 58.576C57.468 59.7904 56.9031 60.9178 56.0845 61.8485C55.2658 62.7793 54.2212 63.4818 53.0522 63.888C52.35 64.1339 51.6113 64.2583 50.8676 64.256H43.8513L43.1657 64.272C39.9425 64.3368 36.7629 65.0325 33.8054 66.32C32.9443 66.72 32.147 67.184 31.4454 67.712L31.1743 67.92L31.0149 68.048C30.9793 68.0699 30.947 68.0968 30.9192 68.128L30.6641 68.352L30.4089 68.576C30.0741 68.88 29.7711 69.216 29.4681 69.568C29.4468 69.5988 29.4181 69.6237 29.3846 69.6405C29.3512 69.6573 29.3141 69.6654 29.2768 69.664C29.2497 69.6641 29.2229 69.6585 29.1982 69.6475C29.1734 69.6364 29.1513 69.6202 29.1332 69.6L29.1013 69.584C27.9071 68.1949 26.4275 67.0814 24.764 66.32C23.9349 65.936 23.0738 65.6 22.2127 65.344L21.9735 65.28L21.543 65.152L21.3038 65.088L20.8732 64.976L20.6978 64.944L20.2035 64.832L19.5178 64.704C18.1614 64.4415 16.785 64.2969 15.4038 64.272L14.7181 64.256H7.63811L7.33513 64.24H7.31919L6.96838 64.208C5.74197 64.0467 4.57738 63.5721 3.58619 62.8297C2.595 62.0873 1.8104 61.1019 1.30757 59.968C0.922475 59.0578 0.732332 58.0766 0.749461 57.088L0.717569 1.136C0.717569 0.912 0.908917 0.72 1.13216 0.72H57.4692C57.6924 0.72 57.8838 0.912 57.8838 1.136L57.8678 57.104ZM36.5481 0H0V57.184C0.00209192 58.2136 0.206269 59.2326 0.600868 60.183C0.995468 61.1334 1.57276 61.9965 2.2998 62.723C3.02683 63.4496 3.88936 64.0253 4.83814 64.4173C5.78692 64.8094 6.80337 65.0101 7.82946 65.008H14.6224C15.5792 65.008 18.0986 65.072 20.7935 65.728C24.9873 66.752 27.9213 68.768 29.2927 71.568C30.6322 68.768 33.5503 66.752 37.76 65.728C40.4708 65.072 43.0222 65.008 43.9949 65.008H50.7719C51.798 65.0101 52.8144 64.8094 53.7632 64.4173C54.712 64.0253 55.5745 63.4496 56.3016 62.723C57.0286 61.9965 57.6059 61.1334 58.0005 60.183C58.3951 59.2326 58.5993 58.2136 58.6013 57.184V0H36.5481Z" fill="#F5E57F"/>
<path d="M17.9074 18.544V18.288C17.9233 18.112 17.9074 17.9359 17.8914 17.696L17.8276 17.104L17.7957 16.8L17.7319 16.512L17.6203 15.9359L17.4609 15.344L17.3811 15.072L17.3652 15.0079L17.2855 14.784C17.226 14.5938 17.1568 14.4069 17.0782 14.2239L16.9665 13.9519L16.8549 13.6799L16.5838 13.152C16.5448 13.0619 16.4967 12.9762 16.4403 12.896L16.2968 12.656L16.2649 12.6079L16.1214 12.416L16.0736 12.352C15.9266 12.1405 15.7554 11.9472 15.5633 11.776L15.5314 11.744L15.356 11.6L15.2444 11.504L15.1806 11.472C15.1548 11.4496 15.1282 11.4283 15.1009 11.4079L15.0211 11.36L14.9095 11.312C14.8457 11.264 14.782 11.248 14.7182 11.232L14.6544 11.2L14.6863 11.36L14.7182 11.712L14.7341 11.8079L14.7501 12.064L14.7979 12.768V13.472L14.782 13.84L14.766 14.064L14.7501 14.192L14.7022 14.544L14.6863 14.656L14.6384 14.912L14.6225 15.0239L14.5587 15.264L14.5428 15.328L14.463 15.616L14.3355 15.968L14.2557 16.192L14.192 16.304C14.1441 16.448 14.0165 16.528 13.8571 16.528L13.7295 16.512C13.5828 16.4554 13.4391 16.3914 13.299 16.32C13.1555 16.272 13.0279 16.192 12.8844 16.112L12.4857 15.888L12.103 15.632C11.7522 15.36 11.3855 15.072 10.9709 14.688L10.923 14.72L10.8911 14.7519L10.6998 14.928L10.652 14.96L10.5882 15.0239L10.3649 15.2799L10.3011 15.36L10.2374 15.456L10.0938 15.6799L10.046 15.776L9.93438 15.968C9.83871 16.16 9.77492 16.3679 9.71114 16.6079L9.67925 16.72L9.63141 16.928L9.61546 17.056L9.58357 17.264V17.392L9.56763 17.6V17.9359L9.59952 18.288L9.64736 18.6239L9.67925 18.832C9.6957 18.8729 9.70643 18.916 9.71114 18.96L9.75898 19.168L9.80682 19.2959C9.8706 19.5359 9.93438 19.7599 10.0141 19.9519L10.1417 20.2559L10.2214 20.448L10.3809 20.7519L10.4606 20.912L10.636 21.216L10.6679 21.264L10.8274 21.504L10.8752 21.568L11.0347 21.792L11.0825 21.856L11.242 22.064L11.2738 22.1119L11.4652 22.3359L11.7203 22.592L11.8479 22.704L11.9755 22.816C12.1349 22.96 12.3103 23.088 12.5336 23.232L12.8525 23.376L17.7957 18.6239C17.826 18.5886 17.8643 18.5612 17.9074 18.544Z" fill="#F5E57F"/>
<path d="M10.524 53.52L11.1937 52.528L11.1618 52.4C11.0487 52.0909 10.9529 51.7758 10.8748 51.456C10.7556 50.9805 10.7125 50.4891 10.7472 50C10.7993 49.3955 11.0718 48.8314 11.5126 48.416C11.7518 48.224 12.0069 48.048 12.278 47.936L12.4375 47.856L12.6607 47.776L12.8042 47.728L13.0594 47.664L13.2029 47.632L13.458 47.584L13.8248 47.52L13.9683 47.504L14.5105 47.456H14.6061L14.8134 47.44H15.5948L15.5629 47.328L15.4034 46.544L15.3715 46.4L14.9729 46.432L14.4945 46.464L14.3669 46.48L13.7769 46.544L13.5856 46.576L13.2986 46.624L13.1391 46.64L13.0594 46.656L12.9159 46.688L12.4215 46.8L12.1824 46.864L12.0867 46.88L11.9432 46.928L11.5605 47.056L11.1937 47.216L11.0821 47.264L10.7313 47.472C10.4262 47.6522 10.1648 47.8981 9.96587 48.192C9.77452 48.464 9.64695 48.8 9.59911 49.152C9.55127 49.472 9.55127 49.824 9.59911 50.224C9.67889 50.8574 9.82864 51.4799 10.0456 52.08L10.0615 52.128L10.3964 53.168L10.524 53.52Z" fill="#F5E57F"/>
<path d="M24.0625 37.9679L24.0784 38.0159L24.8916 38.1119L26.6138 36.128L25.7687 35.2L23.9189 37.44L24.0146 37.808L24.0625 37.9679Z" fill="#F5E57F"/>
<path d="M23.8232 27.6639L23.7594 27.7119L23.6638 27.7599L23.5362 27.8399L23.4405 27.9039L23.1216 28.1599V28.1759C23.01 28.2559 22.9303 28.3679 22.8346 28.4799L22.7549 28.5759C22.7157 28.6187 22.6834 28.6673 22.6592 28.7199L22.5954 28.7999L22.5794 28.8479C22.5476 28.8799 22.5316 28.8959 22.5316 28.9279L22.4519 29.0399L22.404 29.1519L22.3243 29.3119L22.2127 29.5839C22.0756 29.9728 21.9794 30.375 21.9257 30.7839C21.8093 31.6648 21.7986 32.5565 21.8938 33.4399C22.131 35.2905 22.5312 37.1163 23.0897 38.896C23.3799 39.772 23.6195 40.6642 23.8073 41.5679C23.903 41.9999 23.9667 42.448 23.9827 42.896C24.0146 43.424 23.9667 43.8399 23.8551 44.2239C23.7276 44.6559 23.4405 45.04 23.1057 45.296C22.7713 45.5187 22.398 45.6761 22.0054 45.7599C21.3604 45.8946 20.7028 45.959 20.044 45.952H20.0281L19.0554 45.9679H17.5405C17.6087 46.4901 17.6724 47.0128 17.7319 47.5359L18.2421 47.552H18.8162C19.3424 47.552 19.8367 47.5359 20.347 47.5039C20.8094 47.4719 21.527 47.408 22.2924 47.232L22.4678 47.1999L22.5476 47.1679L22.6432 47.152L22.8186 47.1039L22.9622 47.04C23.0903 47.0087 23.2137 46.9603 23.3289 46.896C23.7276 46.72 24.0305 46.528 24.2857 46.288C24.5567 46.016 24.78 45.68 24.9235 45.296C25.0511 44.944 25.1308 44.5279 25.1627 44.0479C25.1863 43.129 25.1006 42.2105 24.9076 41.3119C24.7481 40.4959 24.5408 39.6159 24.2378 38.4799L23.8551 37.0879L23.8232 36.9919L23.4565 35.6799C23.2332 34.8479 22.994 33.8559 22.8984 32.8479C22.8599 32.3735 22.8706 31.8962 22.9303 31.4239C22.994 30.8959 23.1535 30.4479 23.3927 30.0799C23.6478 29.6799 24.0146 29.3599 24.4451 29.1679C24.8119 28.9919 25.2265 28.8959 25.673 28.8639L26.1354 28.8479C26.7413 28.8479 27.2994 28.9279 27.7619 29.0239C28.4444 29.1538 29.1161 29.3357 29.7711 29.5679L29.7232 29.4719L29.4203 28.8639C29.3364 28.7141 29.2618 28.5591 29.197 28.3999L29.1332 28.2559L28.8621 27.6319L28.2084 27.4719L27.8895 27.4079L27.6822 27.3599C27.2074 27.2777 26.7282 27.2242 26.247 27.1999H26.0876C25.4137 27.1923 24.744 27.3061 24.1103 27.5359L23.9827 27.5999C23.9261 27.6115 23.8721 27.6331 23.8232 27.6639Z" fill="#F5E57F"/>
<path d="M14.3513 25.008L20.8254 30.9281L24.3494 27.2481L18.7365 20.8L14.3513 25.008Z" fill="#F5E57F"/>
<path d="M24.9235 30.4C24.6046 30.544 24.3335 30.768 24.1422 31.072C24.0465 31.2 23.9827 31.344 23.9189 31.504L30.0262 37.92C30.3611 37.856 30.6322 37.76 30.8873 37.648L31.1425 37.504L24.9395 30.4H24.9235Z" fill="#F5E57F"/>
<path d="M6.39436 19.216L6.41031 19.328V19.392L6.42625 19.472L6.45815 19.76L6.49004 19.872L6.53788 20.128C6.60166 20.368 6.66545 20.592 6.77707 20.848L6.8249 20.976L6.92058 21.2L6.98437 21.312L7.09599 21.536L7.15977 21.648L7.28734 21.856L7.36707 21.968L7.51058 22.16L7.59031 22.272L7.73382 22.464L7.8295 22.576L7.98896 22.752L8.08463 22.848L8.26004 23.008L8.37166 23.104L8.54707 23.264C8.58791 23.2852 8.6255 23.3121 8.65869 23.344L8.85004 23.488L8.97761 23.568L9.16896 23.696L9.85464 24.032L9.96626 24.064L10.2054 24.16L10.2533 24.176L10.5722 24.256L10.7636 24.288L10.8752 24.304L11.0027 24.32L11.1303 24.336H11.4014C11.6087 24.336 11.816 24.32 12.0552 24.272L12.1987 24.24L12.4219 24.176L12.6452 24.096C12.6886 24.0827 12.7312 24.0667 12.7727 24.048L12.98 23.936L13.0917 23.888C12.7519 23.7332 12.4309 23.54 12.1349 23.312L11.9914 23.184L11.8638 23.056C11.7522 22.976 11.6725 22.88 11.5927 22.8L11.3695 22.56L11.3376 22.528L11.1463 22.304L11.0984 22.24L10.923 22L10.8752 21.936L10.6998 21.68L10.6679 21.632L10.4606 21.312L10.3649 21.168L10.1895 20.832L10.0938 20.64L9.95031 20.32C9.87058 20.112 9.77491 19.888 9.69518 19.616L9.66329 19.488L9.5995 19.264C9.58305 19.223 9.57232 19.18 9.56761 19.136L9.50382 18.896L9.44004 18.528L9.40815 18.144L9.37626 17.76L9.3922 17.504V17.376L9.42409 17.12L9.44004 16.992C9.44004 16.896 9.45599 16.816 9.48788 16.736L9.50382 16.608C9.56761 16.336 9.64734 16.096 9.75896 15.856L9.87058 15.6C9.88999 15.5756 9.90608 15.5487 9.91842 15.52L10.0938 15.216L10.1736 15.12L10.2373 15.008L10.4925 14.704L10.5881 14.608L10.62 14.56L10.8273 14.368L10.8911 14.32L11.21 14.048C11.2741 13.9983 11.3523 13.9703 11.4333 13.968C11.4776 13.9665 11.5218 13.9742 11.563 13.9907C11.6042 14.0072 11.6414 14.0322 11.6725 14.064L11.6884 14.08C12.1979 14.568 12.7473 15.0123 13.3309 15.408L13.6817 15.616C13.8219 15.6812 13.9602 15.7505 14.0963 15.824C14.1323 15.7364 14.159 15.6453 14.176 15.552L14.2557 15.312L14.2717 15.248L14.3195 15.04L14.3354 14.928L14.3833 14.704L14.3992 14.608L14.4311 14.272L14.4471 14.16L14.463 13.952L14.479 13.616L14.4949 13.28L14.479 12.944L14.4471 12.288L14.4152 12.048V11.952L14.3673 11.616L14.3514 11.504L14.3354 11.28L14.2717 10.928C14.2578 10.8327 14.2818 10.7357 14.3385 10.6579C14.3951 10.5802 14.4799 10.5278 14.5746 10.512H14.6863L14.7979 10.528L15.0371 10.576L15.1965 10.624L15.2922 10.656L15.4198 10.704L15.6909 10.832L15.8344 10.912L15.93 10.976L16.0257 11.04L16.1214 11.12L16.249 11.216L16.4563 11.424L16.4881 11.456C16.696 11.6667 16.8829 11.8971 17.0463 12.144L17.0941 12.208L17.2376 12.448L17.2695 12.48L17.429 12.752L17.5725 13.04L17.8276 13.6L17.9392 13.888L18.0509 14.192L18.2422 14.784L18.306 15.024L18.3219 15.088L18.4017 15.376L18.5292 15.984L18.6408 16.592L18.6887 16.896L18.7206 17.216L18.7525 17.84V18.448L18.9598 18.16C19.1511 17.872 19.3106 17.584 19.4222 17.312C19.6773 16.704 19.8049 16.064 19.7571 15.44C19.7165 14.7997 19.5484 14.174 19.2627 13.6C18.9802 13.0083 18.6325 12.4502 18.2263 11.936C17.246 10.6933 16.1339 9.56127 14.9095 8.56002C14.3432 8.0464 13.7903 7.51823 13.2511 6.97602C13.1248 6.85129 13.0075 6.71762 12.9003 6.57602L12.7727 6.40002C12.6611 6.46402 12.5495 6.52802 12.4698 6.60802C12.3103 6.76802 12.1668 6.94402 12.0711 7.16802C11.8957 7.55202 11.8 8.01602 11.7841 8.65602C11.7681 9.20002 11.816 9.74402 11.8479 10.288L11.8638 10.384L11.8957 11.152C11.9117 11.296 11.8957 11.456 11.8798 11.632C11.8638 11.712 11.8479 11.808 11.8 11.92C11.7409 12.0638 11.6338 12.1826 11.4971 12.256L11.4811 12.272C11.4463 12.2898 11.4084 12.3007 11.3695 12.304H11.2898L11.1303 12.32H11.0825L10.8592 12.304L10.8273 12.288L10.7317 12.272L10.62 12.256L10.4606 12.192L10.3968 12.16C10.3166 12.1358 10.241 12.0979 10.1736 12.048L10.1098 12.016L9.96626 11.92L9.91842 11.888L9.79085 11.792L9.75896 11.76L9.61544 11.632L9.58355 11.6L9.47193 11.488L9.42409 11.44L9.32842 11.328C9.22827 11.2301 9.13751 11.123 9.05734 11.008L9.04139 10.992L8.8022 10.688L8.77031 10.704L8.51518 11.008C8.47235 11.0629 8.43497 11.1219 8.40355 11.184L8.37166 11.216L8.33977 11.28L8.24409 11.456L8.2122 11.552L8.13247 11.744L8.11653 11.776L8.06869 11.936L8.05274 12L8.00491 12.144L7.92518 12.576V12.656L7.90923 12.784L7.89328 13.008L7.87733 13.232L7.89328 13.456L7.90923 13.904L7.94112 14.352L8.00491 14.8L8.08463 15.248L8.26004 16.16L8.29193 16.288C8.33977 16.544 8.40355 16.816 8.43545 17.104C8.44574 17.1702 8.43781 17.238 8.41252 17.3001C8.38723 17.3621 8.34553 17.416 8.29193 17.456L8.06869 17.616C7.97904 17.6712 7.88253 17.7142 7.78166 17.744C7.6816 17.7914 7.57324 17.8186 7.46274 17.824L7.33517 17.84H7.2395L7.11193 17.824L7.08004 17.808L6.96842 17.792L6.93652 17.776L6.8249 17.744L6.77707 17.728L6.68139 17.696L6.6495 17.68L6.56977 17.648L6.52193 17.632L6.49004 17.792L6.45815 17.92L6.42625 18.16L6.41031 18.288L6.39436 18.64L6.37842 18.848V19.024L6.39436 19.216Z" fill="#F5E57F"/>
<path d="M31.254 30.688L30.9351 30.56L30.4726 30.4L28.7026 32.528L29.5956 33.472L31.557 31.232L31.3018 30.768L31.254 30.688Z" fill="#F5E57F"/>
<path d="M16.1213 48.256L16.0734 48.032L15.611 48H15.4356L9.67911 56.096L9.66317 56.112L9.63128 56.16C9.51965 56.352 9.55154 56.624 9.72695 56.768C9.80668 56.848 9.9183 56.896 10.0299 56.912H10.0778C10.1734 56.912 10.2691 56.88 10.3488 56.832L10.4126 56.784H10.4286L10.4445 56.768L10.4764 56.72L10.5083 56.688L16.201 48.672L16.1213 48.256Z" fill="#F5E57F"/>
<path d="M23.0259 40.64L22.8665 40.112L22.3403 40.032L22.133 40L17.5405 45.536L17.6362 46.192L18.4494 46.176L23.0259 40.64Z" fill="#F5E57F"/>
<path d="M30.4407 28.064L30.5205 28.208L30.7278 28.656L31.0307 29.232L31.1902 29.536L31.3975 29.904L31.5091 29.936L31.4772 30.016L31.7005 30.4C32.2107 31.296 32.5934 32.096 32.8805 32.848C33.0559 33.312 33.1834 33.744 33.2632 34.16C33.3588 34.64 33.3907 35.104 33.3429 35.52C33.295 36.032 33.1196 36.48 32.8645 36.832C32.6094 37.168 32.2586 37.456 31.828 37.664C31.4932 37.824 31.1105 37.952 30.664 38.032C30.3061 38.101 29.9437 38.1438 29.5796 38.16L28.8621 38.176C27.9986 38.1747 27.1359 38.1212 26.2788 38.0159L25.5134 37.936L25.625 38.368L25.8005 39.04L25.9599 39.056L26.8848 39.136L28.3199 39.184H28.4634C29.0694 39.184 29.6275 39.168 30.1696 39.104C30.8906 39.0409 31.6021 38.896 32.2905 38.6719C32.6732 38.5439 33.024 38.384 33.3429 38.208C33.8551 37.9057 34.2915 37.4897 34.6186 36.992C34.9321 36.453 35.0972 35.84 35.0969 35.216C35.1129 34.8159 35.081 34.384 35.0013 33.92C34.7419 32.5855 34.2623 31.3038 33.5821 30.128C33.3907 29.744 33.1834 29.376 32.9283 28.944L32.8007 28.736L32.5934 28.384L32.4659 28.176L32.2586 27.808C31.8435 27.0575 31.5272 26.2561 31.3178 25.424C31.2353 25.0241 31.1979 24.6162 31.2061 24.208C31.2184 23.6752 31.3598 23.1535 31.6182 22.6879C31.8766 22.2223 32.2442 21.8269 32.6891 21.5359C33.1994 21.1839 33.6777 20.992 34.0445 20.864L34.9534 20.6079L34.9215 20.528L34.8737 20.368L34.8578 20.32V20.256C34.8396 20.2044 34.8289 20.1505 34.8259 20.096L34.8099 19.872V19.8079C34.6764 19.6294 34.5012 19.4865 34.2996 19.392C34.1115 19.3041 33.9134 19.2396 33.7096 19.2L33.3907 19.36L32.9283 19.6C32.6413 19.76 32.2267 19.9999 31.7483 20.3359C31.2061 20.7359 30.7915 21.1199 30.4567 21.5359L30.2334 21.824C30.2123 21.8649 30.1855 21.9027 30.1537 21.936L30.1059 22.032L29.9145 22.368C29.5838 23.0263 29.4299 23.7597 29.468 24.496C29.5266 25.7426 29.8588 26.9609 30.4407 28.064Z" fill="#F5E57F"/>
<path d="M17.9074 47.808L17.5247 45.392L17.5087 45.28C17.3812 44.528 17.2536 43.76 17.1898 43.008C17.1618 42.6083 17.1672 42.2069 17.2058 41.808C17.2695 41.344 17.3971 40.944 17.6044 40.64C17.8755 40.24 18.2582 40 18.5293 39.872C18.8801 39.712 19.2468 39.632 19.5498 39.584C19.9325 39.52 20.3152 39.504 20.7617 39.504H21.3039L22.6274 39.616L23.1058 39.68L23.2812 39.696L22.9144 38.48H22.8187L22.0693 38.432L21.5112 38.416L21.1922 38.4H20.7776C20.2195 38.4 19.7412 38.432 19.2787 38.48C18.7844 38.544 18.1306 38.64 17.5087 38.928C17.2058 39.056 16.9347 39.248 16.6955 39.456C16.4722 39.664 16.2809 39.952 16.1214 40.272L16.0098 40.512L15.9301 40.768L15.8822 40.944L15.8663 41.024L15.8503 41.12C15.8322 41.1716 15.8215 41.2254 15.8185 41.28L15.8025 41.376L15.7387 41.824V41.936L15.7228 42.112V42.4C15.7068 43.056 15.7547 43.776 15.8822 44.688C15.9779 45.36 16.1055 46.096 16.2809 46.96L16.3447 47.312L16.5041 48.08C16.8097 49.1254 16.9759 50.2068 16.9985 51.296V51.808L16.9825 51.984V52.064L16.9506 52.304C16.9028 52.656 16.8231 52.96 16.7114 53.232C16.5839 53.536 16.4244 53.792 16.2331 54.016C16.0417 54.208 15.8344 54.384 15.5793 54.512C15.1168 54.752 14.6544 54.8 14.3036 54.816H14.0804L13.4903 54.8L13.3947 54.784L12.7568 55.728L13.5063 55.824C13.8571 55.872 14.2876 55.936 14.782 55.952H14.8776L15.0849 55.968H15.1647L15.356 55.952H15.5633C15.8982 55.92 16.1374 55.872 16.3766 55.792C16.6672 55.7076 16.936 55.5609 17.1645 55.362C17.393 55.1631 17.5758 54.9168 17.7001 54.64C17.8436 54.336 17.9552 54.016 18.019 53.664C18.1147 53.312 18.1466 52.928 18.1785 52.576C18.2263 51.888 18.2263 51.12 18.1625 50.24C18.1147 49.488 18.019 48.688 17.9074 47.808Z" fill="#F5E57F"/>
<path d="M41.029 25.6L40.9652 25.616L40.742 25.632L40.6304 25.648L40.5187 25.632H40.4549L40.2795 25.616L40.2158 25.6V25.68C40.1839 25.984 40.152 26.368 40.0404 26.848C39.8968 27.456 39.6895 27.984 39.4185 28.416C39.1467 28.845 38.7788 29.2043 38.3442 29.4654C37.9096 29.7265 37.4201 29.8822 36.915 29.92L36.7395 29.936H36.6758L36.4366 29.952H36.2612L35.9582 29.936L35.7987 29.92L35.5117 29.888L35.0812 29.824L34.9058 29.792C34.7062 29.7502 34.5092 29.6967 34.3158 29.632L33.9809 29.552L33.4866 29.376L34.0606 30.384L34.5549 31.36L34.9217 31.44L35.0652 31.456L35.432 31.52L36.0858 31.584H36.8671L37.1541 31.552H37.2817L37.3933 31.536L37.7122 31.472C38.3194 31.3658 38.8899 31.1071 39.3706 30.72C39.8713 30.3366 40.2982 29.8649 40.6304 29.328L41.0609 28.56C41.2858 28.1237 41.4726 27.6687 41.619 27.2L41.7466 26.848L41.7944 26.704L41.8104 26.624C41.7387 26.4129 41.6366 26.2134 41.5074 26.032C41.3848 25.8515 41.2207 25.7033 41.029 25.6Z" fill="#F5E57F"/>
<path d="M31.8918 40.448L49.0337 57.504C49.1135 57.568 49.2091 57.616 49.3048 57.616C49.4164 57.616 49.5121 57.568 49.5759 57.504C49.6443 57.43 49.6823 57.3329 49.6823 57.232C49.6823 57.1311 49.6443 57.034 49.5759 56.96L32.8964 40C32.5775 40.176 32.2427 40.32 31.8918 40.448Z" fill="#F5E57F"/>
<path d="M31.9237 28.56L32.131 28.928L32.2427 29.1201L32.2746 29.168L32.8008 29.376L32.9921 29.44L39.5778 21.872L39.4183 21.696C39.2908 21.536 39.1473 21.408 38.9878 21.28C38.839 21.1487 38.6789 21.031 38.5094 20.928L38.3021 20.8L31.8918 28.512L31.9237 28.56Z" fill="#F5E57F"/>
<path d="M33.327 19.488C33.6937 19.68 34.0126 19.952 34.204 20.272V20.288C34.2518 20.368 34.2678 20.448 34.2518 20.528L34.2359 20.592L34.2199 20.688L34.204 20.832V20.944L34.2199 20.992V21.04L34.2359 21.136L34.2678 21.248V21.28L34.2837 21.312L34.3316 21.424C34.3463 21.4696 34.3678 21.5128 34.3953 21.552V21.568L34.491 21.696C34.6186 21.872 34.778 22.016 34.9694 22.16L35.2724 22.352L35.2883 22.368L37.3772 19.856L37.3453 19.76L37.2975 19.616C37.2635 19.5168 37.2368 19.4152 37.2178 19.312L37.1859 19.2L37.154 19.008L37.138 18.896L37.1061 18.704L37.0902 18.4L37.0743 18.096V17.888V17.696L37.0902 17.472L37.1061 17.168L37.1221 16.976L37.138 16.864L37.1699 16.56L37.2178 16.368L37.2816 15.968L37.3613 15.536C36.8327 14.7587 36.2234 14.04 35.5434 13.392C35.2086 13.04 34.8418 12.688 34.4591 12.336L33.3429 11.312C32.3795 10.5016 31.3903 9.72255 30.377 8.976L29.7551 8.528L29.1332 8.112L28.9418 8L28.8621 8.496C28.8461 8.64 28.8143 8.816 28.8143 8.992L28.7824 9.504C28.7824 9.872 28.8143 10.192 28.878 10.496C28.9952 11.148 29.313 11.7467 29.787 12.208C29.9943 12.416 30.2653 12.608 30.5843 12.8C30.8234 12.944 31.0786 13.056 31.3337 13.184L31.5251 13.28L32.0194 13.552C32.1629 13.648 32.3383 13.76 32.4659 13.936C32.4978 13.968 32.5137 14.016 32.5137 14.064C32.5137 14.112 32.4978 14.16 32.4659 14.192C32.4251 14.2243 32.3743 14.2412 32.3224 14.24H32.2586L32.2426 14.224C32.0991 14.16 31.9237 14.128 31.7643 14.08C31.4278 13.9936 31.0872 13.9241 30.7437 13.872L30.6959 13.856L30.2334 13.792C29.9145 13.744 29.5637 13.696 29.2289 13.696H29.1491L28.7664 13.712L28.7026 13.728V13.744L28.7505 13.984L28.7664 14.064L28.7983 14.176L28.8462 14.368L28.878 14.48L28.894 14.544L28.9578 14.72L29.1013 15.024L29.1172 15.056L29.2129 15.216L29.3086 15.376L29.3724 15.456L29.4202 15.52L29.484 15.6L29.5318 15.664L29.787 15.92L30.074 16.144L30.3929 16.352L30.5524 16.432L30.7278 16.512L31.0786 16.656L31.4613 16.784L32.5297 17.04L33.024 17.152C33.0718 17.152 33.1197 17.184 33.1516 17.216C33.1834 17.264 33.1994 17.312 33.1834 17.36C33.1834 17.456 33.1037 17.536 33.008 17.536L32.8007 17.568C32.4963 17.5841 32.1929 17.6162 31.8918 17.664C31.5889 17.712 31.2061 17.792 30.8872 17.968C30.7278 18.032 30.6162 18.128 30.5364 18.224C30.4566 18.3255 30.4068 18.4475 30.3929 18.576C30.377 18.704 30.3929 18.848 30.4407 19.008L30.4886 19.2L30.7118 19.184L31.2221 19.136H31.4932C32.1239 19.1023 32.7532 19.2231 33.327 19.488Z" fill="#F5E57F"/>
<path d="M41.9059 21.536L41.603 21.552L41.3957 21.568H41.0767L40.9811 21.552L40.6622 21.5201L40.5027 21.504L40.407 21.488L38.2703 23.936L38.2862 23.952L38.5095 24.224C38.6849 24.384 38.8603 24.528 39.0516 24.624L39.1951 24.688H39.2111L39.3386 24.736L39.4662 24.768H39.53L39.6416 24.784H39.8489L39.9446 24.768L40.0881 24.7201L40.1838 24.688L40.2476 24.672L40.3592 24.656C40.4023 24.6526 40.4457 24.6581 40.4867 24.672H40.5027C40.8535 24.816 41.1724 25.088 41.4116 25.424C41.6189 25.696 41.7624 26.016 41.89 26.416C42.0437 26.9141 42.1296 27.4308 42.1451 27.952L42.1611 28.16L42.3684 28.1921H42.5119C42.6235 28.1921 42.7192 28.192 42.7989 28.16C42.9231 28.1322 43.0349 28.0649 43.1178 27.968C43.1976 27.872 43.2773 27.744 43.3251 27.568C43.4367 27.232 43.4527 26.848 43.4527 26.544L43.4208 25.6321L43.4049 25.424C43.3889 25.312 43.4846 25.216 43.5803 25.2H43.5962C43.6759 25.2 43.7557 25.264 43.7876 25.344L43.963 25.808C44.1065 26.16 44.234 26.496 44.3935 26.8321L44.5849 27.168L44.7762 27.5041L44.8878 27.6641L44.9995 27.808L45.2546 28.08L45.5257 28.336L45.8127 28.544L45.8765 28.5761L45.9722 28.64L46.0359 28.672L46.1476 28.7201L46.307 28.8L46.4824 28.8481L46.5143 28.8641L46.8332 28.944L47.0246 28.9921H47.0884L47.2 29.008L47.3913 29.04H47.5827L47.7581 29.056H47.8538V28.9761C47.8538 28.8321 47.8378 28.672 47.8059 28.528C47.7581 28.192 47.6465 27.856 47.5508 27.552L47.4073 27.1041L47.3913 27.056L47.2159 26.5761L47.0246 26.096L46.8013 25.6321L46.7854 25.616C46.7695 25.584 46.7535 25.536 46.7695 25.488C46.7854 25.44 46.8173 25.3921 46.8492 25.376L46.9449 25.344L47.0565 25.376C47.2478 25.4721 47.3913 25.6321 47.503 25.76L47.8378 26.1921L47.9654 26.368L48.4757 27.04C48.7149 27.328 48.954 27.568 49.1932 27.744C49.4484 27.936 49.7513 28.0961 50.0543 28.1921C50.3413 28.2881 50.6603 28.352 51.0111 28.368H51.1546C51.4257 28.368 51.7127 28.3361 52.0157 28.2881L52.51 28.1921L53.0043 28.0481L53.4827 27.8881L53.3392 27.728C53.1641 27.5515 52.994 27.3701 52.8289 27.184L52.3027 26.64L51.7605 26.112C50.2853 24.7296 48.7248 23.4418 47.0884 22.256C46.3329 21.6963 45.5267 21.2088 44.6805 20.8L44.2659 20.96L43.8832 21.088L43.6919 21.152L43.4049 21.232L43.3092 21.2641L43.1019 21.312L42.8149 21.3921C42.7416 21.4095 42.6668 21.4202 42.5916 21.424L42.5119 21.44L42.4003 21.456L42.2089 21.488L41.9059 21.536Z" fill="#F5E57F"/>
<path d="M38.6213 19.44L38.8446 19.744L38.9881 19.872L39.1316 20.016C39.5411 20.3334 40.0347 20.5226 40.5508 20.56H40.6465L40.9175 20.544L41.2684 20.448L41.5554 20.288L41.5873 20.256C41.5235 20.144 41.4438 20.032 41.3959 19.888C41.3384 19.7501 41.3008 19.6046 41.2843 19.456C41.2684 19.296 41.3002 19.136 41.364 18.976C41.4172 18.8339 41.5049 18.7075 41.6192 18.608C41.7079 18.509 41.8098 18.4229 41.9221 18.352L42.257 18.144C42.3224 18.0956 42.3918 18.0528 42.4643 18.016C42.6397 17.904 42.7354 17.792 42.7513 17.744V17.648C42.7418 17.5857 42.7201 17.5259 42.6875 17.472C42.5873 17.3152 42.4696 17.1702 42.3367 17.04L41.9062 16.64L41.4278 16.272C41.2821 16.1766 41.1272 16.0962 40.9654 16.032L40.8059 16H40.79L40.7262 16.032C40.6943 16.048 40.6146 16.128 40.503 16.416L40.4392 16.608L40.2638 17.024C40.2 17.152 40.1521 17.264 40.0724 17.36C39.9812 17.4862 39.8677 17.5947 39.7375 17.68C39.5958 17.7614 39.4379 17.8105 39.2751 17.824H39.1794C39.0678 17.824 38.9562 17.824 38.8446 17.792L38.4459 17.664L38.414 17.696C38.3647 17.7924 38.3273 17.8945 38.3024 18C38.2546 18.224 38.2546 18.48 38.3184 18.736C38.3662 18.96 38.4619 19.2 38.6213 19.44Z" fill="#F5E57F"/>
</svg>
