<svg width="120" height="120" viewBox="0 0 120 120" fill="none" xmlns="http://www.w3.org/2000/svg">
<path d="M60 0C26.8383 0 0 26.8359 0 60C0 93.1617 26.8359 120 60 120C93.1617 120 120 93.1641 120 60C120 26.8383 93.1641 0 60 0ZM45.7233 85.3102C45.7233 85.3102 24.9994 64.5778 23.5097 63.0909C20.1959 59.7771 20.1959 54.3846 23.5097 51.0736C26.832 47.7513 32.2048 47.7513 35.527 51.0736L48.9436 64.4902C50.6119 66.1584 53.3194 66.1469 54.9736 64.4702L84.4322 34.587C87.7432 31.2279 93.1528 31.2052 96.492 34.5445C99.7802 37.8328 99.8002 43.2028 96.5344 46.5166C64.5438 78.9743 58.4686 85.3073 58.4686 85.3073C54.9565 88.8192 49.2382 88.8223 45.7233 85.3102Z" fill="#25B887"/>
</svg>
